<?xml version="1.0" encoding="UTF-8"?>
<svg id="Layer_1" xmlns="http://www.w3.org/2000/svg" version="1.1" viewBox="0 0 316.3 73.1">
  <!-- Generator: Adobe Illustrator 29.0.1, SVG Export Plug-In . SVG Version: 2.1.0 Build 192)  -->
  <defs>
    <style>
      .st0 {
        fill: #3db393;
      }
    </style>
  </defs>
  <g>
    <path class="st0" d="M96.1,38.4c0-17.2,9.6-28,25.5-28s25.5,10.7,25.5,28-9.5,27.8-25.5,27.8-25.5-10.6-25.5-27.8ZM136.9,38.4c0-12.2-5.7-19.5-15.3-19.5s-15.3,7.3-15.3,19.5,5.7,19.3,15.3,19.3,15.3-7.1,15.3-19.3Z"/>
    <path class="st0" d="M152.7,57l23.1-24.7h-22.3v-7.4h33.7v8l-23.4,24.7h24.1v7.4h-35.1v-8Z"/>
    <path class="st0" d="M192.3,44.9c0-12.7,7.8-21,19.8-21s19.7,8.3,19.7,21-7.8,21-19.7,21-19.8-8.3-19.8-21ZM221.8,44.9c0-8.3-3.6-13.2-9.8-13.2s-9.8,4.9-9.8,13.2,3.5,13.2,9.8,13.2,9.8-4.8,9.8-13.2Z"/>
    <path class="st0" d="M237.6,24.9h8.7l.2,6.9c2.1-5.6,6.7-7.8,12-7.8,8.9,0,13.7,6.2,13.7,15.3v25.8h-9.6v-22.7c0-6.8-1.8-10.5-7-10.5s-8.4,3.8-8.4,10.5v22.7h-9.6V24.9Z"/>
    <path class="st0" d="M277.7,44.9c0-12.6,7.7-21,19.5-21s19.1,8,19.1,21.5v2.2h-28.6c.4,7.1,4.1,10.6,9.8,10.6s7.2-2,8.3-5.6l9.8.6c-2.2,7.8-9,12.6-18.3,12.6s-19.7-8.3-19.7-21ZM297.2,31.6c-5.2,0-8.7,3.4-9.5,9.6h18.6c-.5-6.5-4-9.6-9.1-9.6Z"/>
  </g>
  <path class="st0" d="M78.3,31.3c-.3-3.3-1.2-6.5-2.6-9.5-2.9-6.1-7.4-11.9-13.2-15.6C56.5,2.4,49.6,0,42.4,0c-7.5,0-15.1,1.9-21.8,5.4C8.3,12,.1,24.4.1,38.6c0,8,2.6,15.9,7.5,22.2,4.3,5.5,9.7,9.4,16.1,12,.2.1.5.2.9.2.8,0,1.7,0,2.5-.3,1.2-.3,0-2.5.3-3.4.7-1.8,4.2-2,5-3.9.1-.2,0-.4-.2-.5-4.2-1.7-8-3.9-11.1-7.1-3.7-3.8-6.5-8.8-7.7-14-2.5-10.6,1.3-21.8,9.1-29.2,3.3-3,7.2-5.3,11.7-6,5.4-.8,11.1.5,15.9,3.1,9.6,5.2,15.7,15.4,16,26.2.2,6.4-1.7,12.6-5.3,17.9-3.1,4.4-7.3,7.3-12.1,9.5-.3.1-4.1,2.4-3.8,2.9.8,1.7,4,1.9,4.7,3.7.6,1.4,4.5-.2,5.3-.6,5.8-2.5,11-5.8,15.1-10.6,2.1-2.5,3.9-5.2,5.3-8.2,1.4-3,2.6-6.4,3.1-9.7.5-3.8.3-7.9,0-11.7Z"/>
</svg>